# xmcd
#
# Track frame offsets: 
#        150
#        21079
#        42405
#        71404
#        89432
#        103349
#        112553
#        131388
#        153925
#        167088
#        189345
#        207289
#        229725
#
# Disc length: 3266 seconds
#
# Revision: 0
# Processed by: cddbd v1.5.2PL0 Copyright (c) Steve Scherf et al.
# Submitted via: ExactAudioCopy v0.99pb4
#
DISCID=a10cc00d
DTITLE=Eddie Turner - Miracles and Demons
DYEAR=2010
DGENRE=
TTITLE0=Booty Bumpin'
TTITLE1=I'm a Good Man
TTITLE2=Say
TTITLE3=Because of You
TTITLE4=Ride a Painted Pony
TTITLE5=Miracles U Demons, Pt. 1
TTITLE6=I Remember
TTITLE7=Blues Fall Down Like Rain
TTITLE8=Monkey See, Monkey Do
TTITLE9=In The Morning
TTITLE10=Miss Carrie
TTITLE11=Mr Blues
TTITLE12=Miracles and Demons Pt. 2
EXTD=
EXTT0=
EXTT1=
EXTT2=
EXTT3=
EXTT4=
EXTT5=
EXTT6=
EXTT7=
EXTT8=
EXTT9=
EXTT10=
EXTT11=
EXTT12=
PLAYORDER=
